<svg viewBox="0 0 100 100" fill="none" xmlns="http://www.w3.org/2000/svg">
  <!-- AI + Earth Logo (Dark Mode): Neural network (Left) merging into Earth (Right) -->
  <defs>
    <linearGradient id="oceanGradientDark" x1="0%" y1="0%" x2="100%" y2="100%">
      <stop offset="0%" stop-color="#4dd0e1"/>
      <stop offset="50%" stop-color="#26c6da"/>
      <stop offset="100%" stop-color="#00838f"/>
    </linearGradient>
    <linearGradient id="deepOceanDark" x1="100%" y1="0%" x2="0%" y2="100%">
      <stop offset="0%" stop-color="#00acc1"/>
      <stop offset="100%" stop-color="#006064"/>
    </linearGradient>
    <linearGradient id="neuralFadeDark1" x1="0%" y1="0%" x2="100%" y2="0%">
      <stop offset="0%" stop-color="#b388ff"/>
      <stop offset="60%" stop-color="#26c6da"/>
      <stop offset="100%" stop-color="#26c6da" stop-opacity="0"/>
    </linearGradient>
    <linearGradient id="neuralFadeDark2" x1="0%" y1="0%" x2="100%" y2="0%">
      <stop offset="0%" stop-color="#ce93d8"/>
      <stop offset="70%" stop-color="#4dd0e1"/>
      <stop offset="100%" stop-color="#4dd0e1" stop-opacity="0"/>
    </linearGradient>
    <linearGradient id="networkBgGradientDark" x1="0%" y1="0%" x2="100%" y2="0%">
      <stop offset="0%" stop-color="#2c3e50"/> <!-- Dark background for network side -->
      <stop offset="100%" stop-color="#2c3e50" stop-opacity="0"/>
    </linearGradient>

    <clipPath id="wavyEarthDark">
      <path d="M46,10 Q52,18 48,28 Q54,38 50,50 Q54,62 48,72 Q52,82 46,90 A40,40 0 0,0 46,10"/>
    </clipPath>

    <clipPath id="wavyNetworkDark">
      <path d="M46,10 Q52,18 48,28 Q54,38 50,50 Q54,62 48,72 Q52,82 46,90 A40,40 0 1,1 46,10"/>
    </clipPath>
  </defs>
  
  <!-- Right Side: Earth -->
  <g clip-path="url(#wavyEarthDark)">
    <rect x="0" y="0" width="100" height="100" fill="url(#oceanGradientDark)"/>
    <circle cx="55" cy="50" r="35" fill="url(#deepOceanDark)" opacity="0.5"/>
  </g>

  <!-- Left Side: Network Background -->
  <g clip-path="url(#wavyNetworkDark)">
    <rect x="0" y="0" width="100" height="100" fill="url(#networkBgGradientDark)" opacity="0.4"/>
  </g>
  
  <!-- Network Paths -->
  <path d="M12,22 Q22,28 35,32 Q45,36 52,40" stroke="url(#neuralFadeDark1)" stroke-width="1.8" stroke-linecap="round" fill="none" opacity="0.9"/>
  <path d="M8,38 Q20,42 32,44 Q44,47 54,50" stroke="url(#neuralFadeDark1)" stroke-width="2" stroke-linecap="round" fill="none" opacity="0.95"/>
  <path d="M10,55 Q18,52 28,50 Q40,48 52,50" stroke="url(#neuralFadeDark1)" stroke-width="2.2" stroke-linecap="round" fill="none" opacity="0.9"/>
  <path d="M8,68 Q22,64 36,60 Q46,56 54,54" stroke="url(#neuralFadeDark1)" stroke-width="1.8" stroke-linecap="round" fill="none" opacity="0.92"/>
  <path d="M15,82 Q25,75 38,68 Q48,62 55,58" stroke="url(#neuralFadeDark2)" stroke-width="1.6" stroke-linecap="round" fill="none" opacity="0.85"/>
  
  <!-- Organic cross-connections -->
  <line x1="18" y1="28" x2="14" y2="40" stroke="#b388ff" stroke-width="1.5" stroke-linecap="round" opacity="0.8"/>
  <line x1="14" y1="40" x2="16" y2="52" stroke="#b388ff" stroke-width="1.4" stroke-linecap="round" opacity="0.85"/>
  <line x1="16" y1="52" x2="12" y2="65" stroke="#b388ff" stroke-width="1.5" stroke-linecap="round" opacity="0.8"/>
  <line x1="12" y1="65" x2="20" y2="78" stroke="#b388ff" stroke-width="1.4" stroke-linecap="round" opacity="0.75"/>
  
  <line x1="30" y1="34" x2="26" y2="46" stroke="#ce93d8" stroke-width="1.3" stroke-linecap="round" opacity="0.75"/>
  <line x1="26" y1="46" x2="28" y2="58" stroke="#ce93d8" stroke-width="1.3" stroke-linecap="round" opacity="0.8"/>
  <line x1="28" y1="58" x2="32" y2="68" stroke="#ce93d8" stroke-width="1.2" stroke-linecap="round" opacity="0.75"/>
  
  <!-- Diagonal connections -->
  <line x1="18" y1="28" x2="30" y2="34" stroke="#ce93d8" stroke-width="1.2" stroke-linecap="round" opacity="0.7"/>
  <line x1="14" y1="40" x2="26" y2="46" stroke="#ce93d8" stroke-width="1.3" stroke-linecap="round" opacity="0.75"/>
  <line x1="16" y1="52" x2="28" y2="50" stroke="#ce93d8" stroke-width="1.4" stroke-linecap="round" opacity="0.78"/>
  <line x1="12" y1="65" x2="28" y2="58" stroke="#ce93d8" stroke-width="1.2" stroke-linecap="round" opacity="0.7"/>
  <line x1="20" y1="78" x2="32" y2="68" stroke="#ce93d8" stroke-width="1.2" stroke-linecap="round" opacity="0.65"/>
  
  <!-- Bridge to Earth -->
  <line x1="30" y1="34" x2="42" y2="38" stroke="url(#neuralFadeDark2)" stroke-width="1.2" stroke-linecap="round" opacity="0.65"/>
  <line x1="28" y1="50" x2="44" y2="50" stroke="url(#neuralFadeDark2)" stroke-width="1.4" stroke-linecap="round" opacity="0.7"/>
  <line x1="32" y1="68" x2="44" y2="62" stroke="url(#neuralFadeDark2)" stroke-width="1.2" stroke-linecap="round" opacity="0.65"/>
  
  <!-- Neural nodes -->
  <circle cx="18" cy="28" r="3.5" fill="#b388ff"/>
  <circle cx="14" cy="40" r="3" fill="#b388ff"/>
  <circle cx="16" cy="52" r="4" fill="#b388ff"/>
  <circle cx="12" cy="65" r="3" fill="#b388ff"/>
  <circle cx="20" cy="78" r="3.5" fill="#b388ff"/>
  
  <circle cx="30" cy="34" r="2.8" fill="#ce93d8"/>
  <circle cx="26" cy="46" r="2.5" fill="#ce93d8"/>
  <circle cx="28" cy="50" r="3" fill="#ce93d8"/>
  <circle cx="28" cy="58" r="2.5" fill="#ce93d8"/>
  <circle cx="32" cy="68" r="2.8" fill="#ce93d8"/>
  
  <circle cx="42" cy="38" r="2" fill="#ce93d8" opacity="0.6"/>
  <circle cx="44" cy="50" r="2.5" fill="#ce93d8" opacity="0.55"/>
  <circle cx="44" cy="62" r="2" fill="#ce93d8" opacity="0.6"/>
  
  <!-- Continents/Earth Details (Right Side) -->
  <g clip-path="url(#wavyEarthDark)">
    <ellipse cx="70" cy="30" rx="10" ry="5" fill="#1e8449"/>
    <ellipse cx="78" cy="34" rx="6" ry="3.5" fill="#27ae60"/>
    <circle cx="62" cy="33" r="4" fill="#27ae60"/>
    
    <ellipse cx="75" cy="50" rx="8" ry="10" fill="#1e8449"/>
    <ellipse cx="68" cy="45" rx="5" ry="4" fill="#27ae60"/>
    
    <ellipse cx="65" cy="68" rx="7" ry="4" fill="#1e8449"/>
    <ellipse cx="72" cy="72" rx="5" ry="3" fill="#27ae60"/>
    
    <circle cx="58" cy="55" r="3" fill="#27ae60"/>
    <circle cx="80" cy="62" r="3.5" fill="#1e8449"/>
    
    <!-- Clouds -->
    <ellipse cx="65" cy="38" rx="7" ry="2" fill="#e0e0e0" opacity="0.8"/>
    <ellipse cx="58" cy="38" rx="4" ry="1.5" fill="#e0e0e0" opacity="0.75"/>
    
    <ellipse cx="75" cy="55" rx="6" ry="1.8" fill="#e0e0e0" opacity="0.75"/>
    <ellipse cx="68" cy="55" rx="3" ry="1.3" fill="#e0e0e0" opacity="0.7"/>
    
    <ellipse cx="62" cy="75" rx="5" ry="1.5" fill="#e0e0e0" opacity="0.7"/>
  </g>
  
  <!-- Atmospheric glow -->
  <path d="M46,10 Q52,18 48,28 Q54,38 50,50 Q54,62 48,72 Q52,82 46,90" fill="none" stroke="#80deea" stroke-width="1.5" opacity="0.35"/>
</svg>
